<svg viewBox="0 0 260 260" xmlns="http://www.w3.org/2000/svg"><path d="m157.011 61.1a35.619 35.619 0 0 0 -3.94 2.613c-7.443 5.641-13.5 12.918-18.957 20.494-11.807 16.391-22.15 38.711-25.4 45.579l-2.089-4.648c-.262-.555-.516-1.13-.765-1.707.38-1.032.8-2.164 1.1-2.939 5.592-14.468 9.288-23.441 17.484-37 0 0 18.929-19.817 32.573-22.389" fill="#008ba1"/><path d="m148.163 156.205c28.957-8.883 60.311-37.08 66.789-75.274 2.993-17.656 1.564-48.145-20.9-52.113a27.565 27.565 0 0 0 -6.868-.334c-5.773.429-11.3 2.554-16.494 5.352-17.194 9.247-30.225 23.235-40.6 39.249 23.208-18.324 39.37-14.594 39.37-14.594 18.915 3.409 21.63 41.318-2.432 66.509-14.255 14.925-30.741 27.027-43.753 23.636 0 0 1.47 4.486 24.888 7.566" fill="#8acbc1"/><path d="m141.612 158.5c-22.173-3.234-31.882-22.818-31.9-22.851q-1.539-2.691-2.99-5.757l-1.776-3.971a112.727 112.727 0 0 1 -4.122-10.643q-2.029-5.787-3.665-11.7a218.159 218.159 0 0 1 -5.144-23.788c-1.3-8.057-2.21-16.172-2.862-24.306-.609-7.577-.773-15.128-3.244-22.384-4.346-12.761-19.943-15.579-28.216-12.184-13.487 5.537-15.548 19.892-12.684 32.761 3.829 17.2 11.64 34.342 20.069 49.736 8.028 14.664 17.668 28.9 29.924 40.371 0 0 3.2 3.026 5.228 4.723a63.141 63.141 0 0 0 9.371 6.2 46 46 0 0 0 9.651 4.089c6.44 1.845 14.147 1.653 22.36-.29" fill="#283583"/><path d="m97.077 150.059a163.565 163.565 0 0 0 -6.185 25.671 88.3 88.3 0 0 0 2.892 37.486 52 52 0 0 0 7.731 16.234c3.971 5.306 10.4 10.721 17.317 10.95 8.737.284 17.292-7.238 17.9-15.96.485-6.945-4.271-13.226-9.425-17.353-5.572-4.461-10.793-8.932-14.476-15.153-6.1-10.318-8.113-23.431-7.851-35.2.008-.242.018-.5.026-.739a56.632 56.632 0 0 1 -5.95-4.212c-.6-.5-1.3-1.112-1.979-1.725" fill="#008ba1"/></svg>